# xmcd CD database file
#
# Track frame offsets:
#	150
#	16783
#	39442
#	67170
#	86448
#	109797
#	138542
#	167494
#	193110
#	208027
#	228265
#
# Disc length: 3393 seconds
#
# Revision: 0
# Processed by: cddbd v1.5.2PL0 Copyright (c) Steve Scherf et al.
# Submitted via: CDex 1.51
#
DISCID=8f0d3f0b
DTITLE=Joe Jackson and the Bigger Band - A l'Olympia 2012 [1|2]
DYEAR=2012
DGENRE=Jazz
TTITLE0=Joe Jackson and the Bigger Band - It Don't Mean A Thing (If It Ain't Got That Swing)
TTITLE1=Joe Jackson and the Bigger Band - Different For Girls
TTITLE2=Joe Jackson and the Bigger Band - Caravan
TTITLE3=Joe Jackson and the Bigger Band - You Can't Get What You Want
TTITLE4=Joe Jackson and the Bigger Band - I'm Beginning To See The Light/Take The 'A' Train/Cotton Tail
TTITLE5=Joe Jackson and the Bigger Band - Mood Indigo
TTITLE6=Joe Jackson and the Bigger Band - Rockin' in Rhythm
TTITLE7=Joe Jackson and the Bigger Band - Invisible Man
TTITLE8=Joe Jackson and the Bigger Band - Be My Number Two
TTITLE9=Joe Jackson and the Bigger Band - Stranger Than Fiction
TTITLE10=Joe Jackson and the Bigger Band - Home Town
EXTD=YEAR: 2012
EXTT0=
EXTT1=
EXTT2=
EXTT3=
EXTT4=
EXTT5=
EXTT6=
EXTT7=
EXTT8=
EXTT9=
EXTT10=
PLAYORDER=
